<?xml version="1.0" standalone="no"?>
<!DOCTYPE svg PUBLIC "-//W3C//DTD SVG 20010904//EN"
 "http://www.w3.org/TR/2001/REC-SVG-20010904/DTD/svg10.dtd">
<svg version="1.0" xmlns="http://www.w3.org/2000/svg"
 width="600.000000pt" height="600.000000pt" viewBox="0 0 600.000000 600.000000"
 preserveAspectRatio="xMidYMid meet">
<metadata>
Created by potrace 1.14, written by Peter Selinger 2001-2017
</metadata>
<g transform="translate(0.000000,600.000000) scale(0.100000,-0.100000)"
fill="#000000" stroke="none">
<path d="M566 5708 c-6 -15 -396 -2363 -396 -2378 0 -6 96 -10 274 -10 l274 0
6 28 c3 15 35 205 71 422 36 217 68 407 71 421 l5 26 372 6 c419 7 484 14 605
72 207 98 329 236 401 450 74 223 66 429 -25 613 -36 74 -61 109 -122 170 -91
92 -169 134 -305 165 -86 19 -128 21 -660 24 -461 3 -568 2 -571 -9z m972
-433 c90 -21 143 -59 185 -134 26 -45 31 -68 35 -136 4 -69 1 -90 -20 -142
-30 -74 -59 -111 -118 -151 -80 -55 -130 -63 -402 -69 -135 -3 -253 -3 -261 0
-12 4 -5 56 39 324 30 175 54 322 54 327 0 16 406 0 488 -19z"/>
<path d="M2320 4173 c0 -9 -388 -2331 -396 -2366 l-6 -27 278 2 278 3 76 447
75 448 305 0 c524 0 610 16 809 154 193 133 311 383 311 662 0 161 -39 289
-124 408 -82 116 -174 184 -296 224 -142 45 -244 52 -797 52 -282 0 -513 -3
-513 -7z m1008 -447 c132 -43 212 -194 182 -344 -26 -125 -104 -216 -219 -254
-59 -19 -93 -22 -328 -26 -216 -3 -263 -2 -263 10 0 7 23 154 52 326 l52 314
235 -4 c187 -4 247 -8 289 -22z"/>
<path d="M3817 1433 c-108 -654 -197 -1194 -197 -1200 0 -10 62 -13 275 -13
151 0 275 2 275 5 0 10 140 848 145 873 l5 22 253 0 c282 1 530 13 603 31 122
30 288 131 375 228 95 107 170 291 190 470 37 323 -131 624 -402 718 -136 47
-222 53 -794 53 l-530 0 -198 -1187z m1082 757 c119 -14 177 -35 226 -85 61
-60 88 -138 83 -235 -8 -133 -74 -232 -191 -286 l-62 -29 -283 -3 -283 -3 6
23 c3 13 25 147 50 298 25 151 48 287 51 303 l6 27 156 0 c86 0 195 -5 241
-10z"/>
</g>
</svg>
